<svg width="23" height="33" viewBox="0 0 23 33" fil="none" xmlns="http://wwww.w3.org/2000/svg">
<path d="M11.4233 1.02924C10.0583 1.02914 8.70663 1.29792 7.44552 1.82023C6.18441 2.34254 5.03854 3.10816 4.07335 4.07335C3.10816 5.03854 2.34254 6.18441 1.82023 7.44552C1.29792 8.70663 1.02914 10.0583 1.02924 11.4233C1.02924 19.5577 8.96459 29.3464 11.044 31.7511C11.1557 31.8789 11.3135 31.9573 11.4828 31.9692C11.6521 31.9811 11.8192 31.9255 11.9477 31.8146L12.0112 31.7511C14.0628 29.3369 21.8165 19.5577 21.8165 11.4225C21.8165 10.0576 21.5477 8.70612 21.0254 7.44516C20.503 6.18419 19.7375 5.03845 18.7724 4.07335C17.8073 3.10825 16.6615 2.34269 15.4006 1.82038C14.1396 1.29807 12.7881 1.02924 11.4233 1.02924ZM11.4233 14.2437C10.7261 14.2437 10.0446 14.037 9.4649 13.6497C8.88522 13.2623 8.43341 12.7118 8.16662 12.0677C7.89982 11.4236 7.83001 10.7148 7.96603 10.0311C8.10204 9.34728 8.43776 8.71919 8.93078 8.22622C9.42371 7.73324 10.0518 7.39752 10.7356 7.26151C11.4194 7.1255 12.1281 7.1953 12.7722 7.4621C13.4163 7.7289 13.9668 8.1807 14.3542 8.76038C14.7415 9.34006 14.9482 10.0216 14.9482 10.7187V10.7275C14.9459 11.6608 14.5735 12.5552 13.9127 13.2144C13.2519 13.8735 12.3566 14.2437 11.4233 14.2437Z" stroke="FFAFCC" stroke-width="2" stroke-linecap="round" stroke-linejoin="round"/>
</svg>
