<svg width="26" height="26" viewBox="0 0 26 26" fill="none" xmlns="http://www.w3.org/2000/svg">
<path fill-rule="evenodd" clip-rule="evenodd" d="M6.65391 6.65382C9.64608 3.66274 11.1411 2.16666 13.0001 2.16666C14.8591 2.16666 16.3541 3.66166 19.3462 6.65382C22.3373 9.64599 23.8334 11.141 23.8334 13C23.8334 14.859 22.3384 16.354 19.3462 19.3462C16.3541 22.3372 14.8591 23.8333 13.0001 23.8333C11.1411 23.8333 9.64608 22.3383 6.65391 19.3462C3.66283 16.354 2.16675 14.859 2.16675 13C2.16675 11.141 3.66175 9.64599 6.65391 6.65382ZM14.9999 9.15632C14.922 9.08334 14.8305 9.02641 14.7306 8.9888C14.6307 8.95118 14.5244 8.9336 14.4177 8.93707C14.3111 8.94054 14.2061 8.96499 14.1089 9.00902C14.0116 9.05305 13.924 9.11581 13.851 9.1937C13.7781 9.27159 13.7211 9.36309 13.6835 9.46298C13.6459 9.56287 13.6283 9.66919 13.6318 9.77588C13.6353 9.88256 13.6597 9.98751 13.7037 10.0847C13.7478 10.182 13.8105 10.2696 13.8884 10.3426L15.2783 11.6458H11.556C10.9547 11.6458 10.0632 11.8083 9.29508 12.3262C8.48475 12.8732 7.85425 13.7962 7.85425 15.1667C7.85425 15.3821 7.93985 15.5888 8.09222 15.7412C8.2446 15.8936 8.45126 15.9792 8.66675 15.9792C8.88224 15.9792 9.0889 15.8936 9.24127 15.7412C9.39364 15.5888 9.47925 15.3821 9.47925 15.1667C9.47925 14.3704 9.81183 13.9392 10.2051 13.6738C10.609 13.4162 11.0769 13.2767 11.556 13.2708H15.2783L13.8884 14.5741C13.7349 14.7223 13.6459 14.9251 13.6406 15.1384C13.6354 15.3518 13.7143 15.5586 13.8602 15.7143C14.0062 15.8699 14.2076 15.9619 14.4209 15.9703C14.6341 15.9788 14.8421 15.9029 14.9999 15.7592L17.8892 13.0509C17.9702 12.9749 18.0347 12.8831 18.0789 12.7812C18.123 12.6793 18.1458 12.5694 18.1458 12.4583C18.1458 12.3473 18.123 12.2374 18.0789 12.1354C18.0347 12.0335 17.9702 11.9417 17.8892 11.8657L14.9999 9.15632Z" fill="#FFAFCC"/>
</svg>
