<svg width="15" height="15" viewBox="0 0 15 15" fill="none" xmlns="http://www.w3.org/2000/svg">
<path d="M9.02029 5.91876L5.87902 9.08126C5.4755 8.67501 5.22717 8.11876 5.22717 7.50001C5.22717 6.26251 6.22046 5.26251 7.44966 5.26251C8.06425 5.26251 8.61677 5.51251 9.02029 5.91876Z" stroke="#DCDCDC" stroke-width="1.5" stroke-linecap="round" stroke-linejoin="round"/>
<path d="M11.0627 3.60624C9.97632 2.78124 8.73471 2.33124 7.44964 2.33124C5.2582 2.33124 3.21575 3.63124 1.7941 5.88124C1.23538 6.76249 1.23538 8.24374 1.7941 9.12499C2.28454 9.89999 2.85568 10.5687 3.47649 11.1062" stroke="#DCDCDC" stroke-width="1.5" stroke-linecap="round" stroke-linejoin="round"/>
<path d="M5.22717 12.2062C5.93489 12.5062 6.68607 12.6687 7.44966 12.6687C9.6411 12.6687 11.6835 11.3687 13.1052 9.11874C13.6639 8.23749 13.6639 6.75624 13.1052 5.87499C12.9003 5.54999 12.6768 5.24374 12.4471 4.95624" stroke="#DCDCDC" stroke-width="1.5" stroke-linecap="round" stroke-linejoin="round"/>
<path d="M9.62866 7.9375C9.46725 8.81875 8.75333 9.5375 7.87799 9.7" stroke="#DCDCDC" stroke-width="1.5" stroke-linecap="round" stroke-linejoin="round"/>
<path d="M5.87906 9.08124L1.24164 13.75" stroke="#DCDCDC" stroke-width="1.5" stroke-linecap="round" stroke-linejoin="round"/>
<path d="M13.6577 1.25L9.02032 5.91875" stroke="#DCDCDC" stroke-width="1.5" stroke-linecap="round" stroke-linejoin="round"/>
</svg>
